:FULLY-SPECIFIED
:FORCE-ALL-JOINTS-BE-3DOF
:DEGREES
2854
root -6.08962 13.2678 -28.8142 1240.74 -66.6882 -159.07
lfemur -65.4159 44.9667 -5.44789
ltibia 77.0583 0 0
lfoot -4.59613 -6.25525 0
ltoes -28.7388 0 0
rfemur -31.0765 -19.2524 22.4315
rtibia 88.6877 0 0
rfoot -41.1148 -28.7233 0
rtoes -13.8572 0 0
lowerback 15.6324 5.62835 0.942591
upperback -4.49146 7.9858 1.66398
thorax -13.9288 3.70097 -0.85413
lowerneck -2.51853 9.64001 2.25628
upperneck 9.15052 12.5538 2.00425
head 3.40415 6.34088 0.738272
lclavicle -5.94449e-14 -9.6228e-15 0
lhumerus 5.5321 12.233 84.2392
lradius 93.4727 0 0
lwrist -19.1609 0 0
lhand -39.5144 388.247 0
lfingers 7.12502 0 0
lthumb -12.4997 -662.147 0
rclavicle -5.94449e-14 -9.6228e-15 0
rhumerus -59.1454 51.0106 -111.56
rradius 113.639 0 0
rwrist -83.7903 0 0
rhand 7.97605 -386.012 0
rfingers 7.12502 0 0
rthumb 33.2043 307.031 0
2855
root -6.09106 13.2651 -28.8138 1240.72 -66.7001 -159.018
lfemur -65.5001 44.9691 -5.47957
ltibia 77.1034 0 0
lfoot -4.6779 -6.25289 0
ltoes -28.9877 0 0
rfemur -31.1237 -19.2369 22.4506
rtibia 88.7255 0 0
rfoot -41.1058 -28.7722 0
rtoes -13.8622 0 0
lowerback 15.6426 5.62176 0.974175
upperback -4.4987 7.98409 1.66436
thorax -13.939 3.69698 -0.871907
lowerneck -2.52677 9.63695 2.25499
upperneck 9.15343 12.5485 2.01531
head 3.40581 6.33867 0.74232
lclavicle -4.98356e-14 -6.50866e-15 0
lhumerus 5.55009 12.233 84.2244
lradius 93.4543 0 0
lwrist -19.1759 0 0
lhand -39.4974 388.196 0
lfingers 7.12502 0 0
lthumb -12.4833 -662.197 0
rclavicle -4.98356e-14 -6.50866e-15 0
rhumerus -59.1522 51.0272 -111.584
rradius 113.621 0 0
rwrist -83.752 0 0
rhand 8.00125 -385.987 0
rfingers 7.12502 0 0
rthumb 33.2282 307.061 0
2856
root -6.09249 13.2623 -28.8135 1240.69 -66.715 -158.954
lfemur -65.6035 44.9685 -5.51462
ltibia 77.1633 0 0
lfoot -4.7743 -6.24649 0
ltoes -29.2628 0 0
rfemur -31.1821 -19.2175 22.4755
rtibia 88.7758 0 0
rfoot -41.0962 -28.8375 0
rtoes -13.8664 0 0
lowerback 15.6581 5.61442 1.01322
upperback -4.50804 7.9831 1.66452
thorax -13.9538 3.69248 -0.894881
lowerneck -2.53583 9.63352 2.2541
upperneck 9.15784 12.5426 2.02719
head 3.40813 6.33618 0.746648
lclavicle -3.97165e-14 -2.91401e-15 0
lhumerus 5.57124 12.2394 84.2107
lradius 93.4297 0 0
lwrist -19.1895 0 0
lhand -39.4775 388.142 0
lfingers 7.12502 0 0
lthumb -12.4641 -662.249 0
rclavicle -3.97165e-14 -2.91401e-15 0
rhumerus -59.1617 51.048 -111.611
rradius 113.6 0 0
rwrist -83.7067 0 0
rhand 8.03105 -385.959 0
rfingers 7.12502 0 0
rthumb 33.2566 307.095 0
2857
root -6.09392 13.2596 -28.8131 1240.66 -66.7331 -158.876
lfemur -65.7282 44.9644 -5.55299
ltibia 77.2399 0 0
lfoot -4.88648 -6.23588 0
ltoes -29.5651 0 0
rfemur -31.2528 -19.1941 22.5069
rtibia 88.84 0 0
rfoot -41.0861 -28.9213 0
rtoes -13.8697 0 0
lowerback 15.6798 5.60624 1.06061
upperback -4.51975 7.98291 1.6644
thorax -13.9738 3.68739 -0.923678
lowerneck -2.54576 9.62974 2.25375
upperneck 9.16399 12.536 2.03988
head 3.41119 6.33341 0.751245
lclavicle -2.9122e-14 1.19271e-15 0
lhumerus 5.59618 12.2531 84.1984
lradius 93.3981 0 0
lwrist -19.2015 0 0
lhand -39.4545 388.085 0
lfingers 7.12502 0 0
lthumb -12.4419 -662.305 0
rclavicle -2.9122e-14 1.19271e-15 0
rhumerus -59.1743 51.0736 -111.643
rradius 113.575 0 0
rwrist -83.6537 0 0
rhand 8.0662 -385.926 0
rfingers 7.12502 0 0
rthumb 33.29 307.135 0
2858
root -6.09418 13.2576 -28.8107 1240.63 -66.7528 -158.797
lfemur -65.8546 44.9591 -5.5917
ltibia 77.3188 0 0
lfoot -4.9972 -6.22461 0
ltoes -29.8551 0 0
rfemur -31.3239 -19.1706 22.5387
rtibia 88.9064 0 0
rfoot -41.0753 -29.0105 0
rtoes -13.8746 0 0
lowerback 15.702 5.59832 1.10868
upperback -4.53179 7.98321 1.66424
thorax -13.9944 3.68245 -0.953103
lowerneck -2.55529 9.626 2.25363
upperneck 9.17072 12.5295 2.05216
head 3.41443 6.33067 0.755683
lclavicle -1.88405e-14 5.48188e-15 0
lhumerus 5.62069 12.2688 84.189
lradius 93.3675 0 0
lwrist -19.2122 0 0
lhand -39.4322 388.032 0
lfingers 7.12502 0 0
lthumb -12.4204 -662.357 0
rclavicle -1.88405e-14 5.48188e-15 0
rhumerus -59.188 51.0998 -111.675
rradius 113.551 0 0
rwrist -83.6008 0 0
rhand 8.1015 -385.895 0
rfingers 7.12502 0 0
rthumb 33.3236 307.173 0
2859
root -6.09444 13.2557 -28.8083 1240.6 -66.772 -158.733
lfemur -65.9624 44.9549 -5.62791
ltibia 77.385 0 0
lfoot -5.08975 -6.21589 0
ltoes -30.096 0 0
rfemur -31.3834 -19.1512 22.5645
rtibia 88.9627 0 0
rfoot -41.0635 -29.091 0
rtoes -13.883 0 0
lowerback 15.7192 5.59174 1.14961
upperback -4.54206 7.98366 1.66427
thorax -14.011 3.67839 -0.97784
lowerneck -2.56325 9.62267 2.25332
upperneck 9.17673 12.5238 2.06288
head 3.41722 6.32823 0.759572
lclavicle -9.59919e-15 9.5964e-15 0
lhumerus 5.64027 12.2812 84.1836
lradius 93.3455 0 0
lwrist -19.2222 0 0
lhand -39.4144 387.989 0
lfingers 7.12502 0 0
lthumb -12.4033 -662.398 0
rclavicle -9.59919e-15 9.5964e-15 0
rhumerus -59.2006 51.1223 -111.702
rradius 113.53 0 0
rwrist -83.556 0 0
rhand 8.13145 -385.872 0
rfingers 7.12502 0 0
rthumb 33.3521 307.202 0
2860
root -6.09469 13.2537 -28.8059 1240.58 -66.7905 -158.68
lfemur -66.0533 44.9517 -5.66179
ltibia 77.4395 0 0
lfoot -5.16609 -6.20903 0
ltoes -30.2928 0 0
rfemur -31.4327 -19.1353 22.5847
rtibia 89.0101 0 0
rfoot -41.0508 -29.1634 0
rtoes -13.8941 0 0
lowerback 15.7319 5.58642 1.184
upperback -4.55075 7.98429 1.66445
thorax -14.0239 3.67515 -0.99834
lowerneck -2.56979 9.61969 2.25281
upperneck 9.18203 12.5187 2.07219
head 3.41958 6.32607 0.762961
lclavicle -1.34025e-15 1.35266e-14 0
lhumerus 5.65518 12.2907 84.1819
lradius 93.331 0 0
lwrist -19.2314 0 0
lhand -39.4007 387.956 0
lfingers 7.12502 0 0
lthumb -12.39 -662.431 0
rclavicle -1.34025e-15 1.35266e-14 0
rhumerus -59.212 51.1415 -111.725
rradius 113.513 0 0
rwrist -83.5187 0 0
rhand 8.15631 -385.855 0
rfingers 7.12502 0 0
rthumb 33.3757 307.224 0
2861
root -6.09495 13.2518 -28.8035 1240.56 -66.8083 -158.64
lfemur -66.1288 44.9493 -5.69351
ltibia 77.4836 0 0
lfoot -5.22815 -6.20335 0
ltoes -30.4504 0 0
rfemur -31.4728 -19.1225 22.5997
rtibia 89.0493 0 0
rfoot -41.0375 -29.2281 0
rtoes -13.9071 0 0
lowerback 15.7406 5.58225 1.21246
upperback -4.558 7.98511 1.66473
thorax -14.0337 3.67265 -1.01505
lowerneck -2.57506 9.61702 2.25208
upperneck 9.18664 12.5142 2.08019
head 3.42154 6.32415 0.765895
lclavicle 5.99413e-15 1.72629e-14 0
lhumerus 5.66565 12.2979 84.1834
lradius 93.3231 0 0
lwrist -19.2397 0 0
lhand -39.3905 387.932 0
lfingers 7.12502 0 0
lthumb -12.3802 -662.454 0
rclavicle 5.99413e-15 1.72629e-14 0
rhumerus -59.2223 51.1576 -111.745
rradius 113.499 0 0
rwrist -83.4882 0 0
rhand 8.17633 -385.844 0
rfingers 7.12502 0 0
rthumb 33.3947 307.239 0
2862
root -6.09521 13.2498 -28.8011 1240.55 -66.8252 -158.61
lfemur -66.1905 44.9477 -5.72323
ltibia 77.5184 0 0
lfoot -5.2779 -6.19816 0
ltoes -30.5739 0 0
rfemur -31.5052 -19.1122 22.6102
rtibia 89.0814 0 0
rfoot -41.0236 -29.2856 0
rtoes -13.921 0 0
lowerback 15.7461 5.57916 1.23559
upperback -4.56399 7.98614 1.66509
thorax -14.0408 3.67083 -1.02842
lowerneck -2.57922 9.6146 2.25111
upperneck 9.19057 12.5102 2.08701
head 3.42313 6.32243 0.768424
lclavicle 1.24618e-14 2.07956e-14 0
lhumerus 5.67194 12.3034 84.1877
lradius 93.3207 0 0
lwrist -19.2472 0 0
lhand -39.3835 387.915 0
lfingers 7.12502 0 0
lthumb -12.3734 -662.471 0
rclavicle 1.24618e-14 2.07956e-14 0
rhumerus -59.2314 51.171 -111.76
rradius 113.487 0 0
rwrist -83.4638 0 0
rhand 8.19177 -385.838 0
rfingers 7.12502 0 0
rthumb 33.4094 307.248 0
